<svg width="40" height="40" viewBox="0 0 40 40" fill="none" xmlns="http://www.w3.org/2000/svg">
<path d="M22.3077 19.9937C22.3077 20.4502 22.1723 20.8964 21.9188 21.2759C21.6652 21.6555 21.3048 21.9513 20.8831 22.1259C20.4614 22.3006 19.9974 22.3463 19.5498 22.2573C19.1021 22.1682 18.691 21.9484 18.3682 21.6257C18.0455 21.3029 17.8257 20.8917 17.7366 20.444C17.6476 19.9963 17.6933 19.5322 17.868 19.1105C18.0426 18.6888 18.3384 18.3284 18.7179 18.0748C19.0974 17.8212 19.5436 17.6858 20 17.6858C20.612 17.6858 21.199 17.929 21.6318 18.3618C22.0646 18.7946 22.3077 19.3816 22.3077 19.9937ZM11.5385 17.6858C11.082 17.6858 10.6359 17.8212 10.2564 18.0748C9.87688 18.3284 9.58109 18.6888 9.40643 19.1105C9.23177 19.5322 9.18607 19.9963 9.27511 20.444C9.36415 20.8917 9.58394 21.3029 9.90668 21.6257C10.2294 21.9484 10.6406 22.1682 11.0883 22.2573C11.5359 22.3463 11.9999 22.3006 12.4216 22.1259C12.8433 21.9513 13.2037 21.6555 13.4572 21.2759C13.7108 20.8964 13.8462 20.4502 13.8462 19.9937C13.8462 19.3816 13.603 18.7946 13.1702 18.3618C12.7375 17.929 12.1505 17.6858 11.5385 17.6858ZM28.4615 17.6858C28.0051 17.6858 27.559 17.8212 27.1795 18.0748C26.8 18.3284 26.5042 18.6888 26.3295 19.1105C26.1548 19.5322 26.1091 19.9963 26.1982 20.444C26.2872 20.8917 26.507 21.3029 26.8298 21.6257C27.1525 21.9484 27.5637 22.1682 28.0113 22.2573C28.459 22.3463 28.923 22.3006 29.3447 22.1259C29.7663 21.9513 30.1267 21.6555 30.3803 21.2759C30.6339 20.8964 30.7692 20.4502 30.7692 19.9937C30.7692 19.3816 30.5261 18.7946 30.0933 18.3618C29.6605 17.929 29.0736 17.6858 28.4615 17.6858ZM40 19.9937C40.0008 23.447 39.1075 26.8416 37.4073 29.8472C35.707 32.8529 33.2576 35.367 30.2975 37.145C27.3374 38.923 23.9675 39.9043 20.5157 39.9933C17.0639 40.0824 13.6478 39.2761 10.6 37.6531L4.05192 39.836C3.50978 40.0168 2.928 40.0431 2.37178 39.9118C1.81557 39.7805 1.3069 39.4969 0.90279 39.0928C0.498683 38.6886 0.215105 38.1799 0.0838414 37.6236C-0.0474222 37.0674 -0.021184 36.4855 0.159615 35.9433L2.34231 29.3946C0.91567 26.7121 0.118841 23.7398 0.0123026 20.7033C-0.0942354 17.6669 0.492318 14.646 1.72744 11.8701C2.96256 9.0942 4.81379 6.63617 7.14061 4.68261C9.46743 2.72905 12.2087 1.3313 15.1563 0.59546C18.1039 -0.140384 21.1804 -0.194979 24.1522 0.435816C27.1241 1.06661 29.9132 2.36622 32.3079 4.23599C34.7025 6.10576 36.6398 8.49656 37.9726 11.2269C39.3054 13.9572 39.9988 16.9554 40 19.9937ZM36.9231 19.9937C36.9223 17.3975 36.3244 14.8364 35.1756 12.5083C34.0267 10.1802 32.3577 8.14764 30.2977 6.56787C28.2377 4.9881 25.8419 3.90346 23.2957 3.39787C20.7495 2.89227 18.1211 2.97927 15.6139 3.65214C13.1067 4.32501 10.7879 5.56571 8.83683 7.27825C6.88579 8.99079 5.35484 11.1293 4.36242 13.5282C3.37001 15.9272 2.94273 18.5223 3.11364 21.1128C3.28456 23.7034 4.04909 26.2199 5.34808 28.4676C5.4571 28.6563 5.5248 28.866 5.54668 29.0829C5.56856 29.2997 5.54413 29.5187 5.475 29.7254L3.07692 36.9184L10.2692 34.5201C10.4259 34.4667 10.5903 34.4394 10.7558 34.4393C11.026 34.4398 11.2913 34.5114 11.525 34.647C14.0977 36.1357 17.017 36.9204 19.9893 36.9223C22.9616 36.9242 25.8819 36.1431 28.4565 34.6577C31.0311 33.1723 33.169 31.035 34.6553 28.4608C36.1416 25.8866 36.9238 22.9663 36.9231 19.9937Z" fill="#F5F5F5"/>
</svg>
