<svg width="32" height="32" viewBox="0 0 32 32" fill="none" xmlns="http://www.w3.org/2000/svg">
<path d="M31.9958 17.3462C31.7342 20.3878 30.6093 23.2915 28.7535 25.7155C26.8976 28.1396 24.3881 29.9832 21.5201 31.0294C18.6521 32.0757 15.5449 32.281 12.5641 31.6214C9.58338 30.9617 6.85303 29.4644 4.69432 27.3057C2.5356 25.147 1.03833 22.4166 0.37865 19.4359C-0.281026 16.4551 -0.075662 13.3479 0.970583 10.4799C2.01683 7.6119 3.86043 5.10236 6.28448 3.24654C8.70853 1.39072 11.6122 0.265815 14.6538 0.00418378C14.8156 -0.00915787 14.9783 0.00948353 15.1328 0.0590439C15.2874 0.108604 15.4306 0.188113 15.5544 0.29303C15.6782 0.397947 15.7801 0.526218 15.8543 0.67052C15.9285 0.814821 15.9736 0.972327 15.9869 1.13404C16.0002 1.29576 15.9816 1.45852 15.932 1.61303C15.8825 1.76755 15.803 1.91079 15.6981 2.03457C15.5931 2.15836 15.4649 2.26026 15.3206 2.33448C15.1763 2.40869 15.0188 2.45375 14.857 2.46709C12.2827 2.68828 9.82501 3.64016 7.77326 5.21072C5.72151 6.78128 4.16102 8.90518 3.27539 11.3325C2.38977 13.7599 2.21586 16.3897 2.77413 18.9125C3.3324 21.4353 4.59962 23.7462 6.42668 25.5733C8.25375 27.4004 10.5647 28.6676 13.0875 29.2259C15.6103 29.7841 18.2401 29.6102 20.6675 28.7246C23.0948 27.839 25.2187 26.2785 26.7893 24.2267C28.3598 22.175 29.3117 19.7173 29.5329 17.143C29.5598 16.8164 29.7154 16.5138 29.9654 16.3019C30.2154 16.0901 30.5394 15.9862 30.866 16.0131C31.1926 16.04 31.4951 16.1956 31.707 16.4456C31.9189 16.6956 32.0228 17.0195 31.9958 17.3462ZM14.7554 7.39292V16.0131C14.7554 16.3397 14.8852 16.6529 15.1161 16.8839C15.3471 17.1148 15.6603 17.2446 15.9869 17.2446H24.6071C24.9337 17.2446 25.2469 17.1148 25.4779 16.8839C25.7088 16.6529 25.8385 16.3397 25.8385 16.0131C25.8385 15.6865 25.7088 15.3733 25.4779 15.1423C25.2469 14.9114 24.9337 14.7816 24.6071 14.7816H17.2184V7.39292C17.2184 7.06631 17.0886 6.75309 16.8577 6.52214C16.6267 6.2912 16.3135 6.16146 15.9869 6.16146C15.6603 6.16146 15.3471 6.2912 15.1161 6.52214C14.8852 6.75309 14.7554 7.06631 14.7554 7.39292ZM20.9127 3.69855C21.2781 3.69855 21.6352 3.59021 21.939 3.38724C22.2427 3.18427 22.4795 2.89578 22.6193 2.55825C22.7591 2.22072 22.7957 1.84932 22.7244 1.491C22.6531 1.13268 22.4772 0.803544 22.2189 0.545211C21.9605 0.286878 21.6314 0.110951 21.2731 0.039677C20.9148 -0.0315969 20.5434 0.00498344 20.2058 0.144792C19.8683 0.284601 19.5798 0.521359 19.3768 0.825127C19.1739 1.12889 19.0655 1.48603 19.0655 1.85137C19.0655 2.34127 19.2601 2.81111 19.6066 3.15752C19.953 3.50394 20.4228 3.69855 20.9127 3.69855ZM26.4543 7.39292C26.8196 7.39292 27.1767 7.28458 27.4805 7.08161C27.7843 6.87864 28.021 6.59015 28.1608 6.25262C28.3006 5.91509 28.3372 5.54368 28.266 5.18536C28.1947 4.82705 28.0188 4.49791 27.7604 4.23958C27.5021 3.98124 27.173 3.80532 26.8146 3.73404C26.4563 3.66277 26.0849 3.69935 25.7474 3.83916C25.4099 3.97897 25.1214 4.21572 24.9184 4.51949C24.7154 4.82326 24.6071 5.18039 24.6071 5.54573C24.6071 6.03564 24.8017 6.50547 25.1481 6.85189C25.4945 7.1983 25.9644 7.39292 26.4543 7.39292ZM30.1486 12.9345C30.514 12.9345 30.8711 12.8261 31.1749 12.6232C31.4786 12.4202 31.7154 12.1317 31.8552 11.7942C31.995 11.4566 32.0316 11.0852 31.9603 10.7269C31.889 10.3686 31.7131 10.0395 31.4548 9.78113C31.1965 9.52279 30.8673 9.34686 30.509 9.27559C30.1507 9.20432 29.7793 9.2409 29.4417 9.38071C29.1042 9.52051 28.8157 9.75727 28.6128 10.061C28.4098 10.3648 28.3014 10.7219 28.3014 11.0873C28.3014 11.5772 28.4961 12.047 28.8425 12.3934C29.1889 12.7398 29.6587 12.9345 30.1486 12.9345Z" fill="#F5F5F5"/>
</svg>
