<svg width="32" height="33" viewBox="0 0 32 33" fill="none" xmlns="http://www.w3.org/2000/svg">
<path d="M29.3333 3.12816H25.3333V1.8974C25.3333 1.57097 25.1929 1.25792 24.9428 1.02711C24.6928 0.796296 24.3536 0.666626 24 0.666626C23.6464 0.666626 23.3072 0.796296 23.0572 1.02711C22.8071 1.25792 22.6667 1.57097 22.6667 1.8974V3.12816H9.33333V1.8974C9.33333 1.57097 9.19286 1.25792 8.94281 1.02711C8.69276 0.796296 8.35362 0.666626 8 0.666626C7.64638 0.666626 7.30724 0.796296 7.05719 1.02711C6.80714 1.25792 6.66667 1.57097 6.66667 1.8974V3.12816H2.66667C1.95942 3.12816 1.28115 3.3875 0.781048 3.84913C0.280951 4.31076 0 4.93686 0 5.5897V30.2051C0 30.8579 0.280951 31.484 0.781048 31.9457C1.28115 32.4073 1.95942 32.6666 2.66667 32.6666H29.3333C30.0406 32.6666 30.7189 32.4073 31.219 31.9457C31.719 31.484 32 30.8579 32 30.2051V5.5897C32 4.93686 31.719 4.31076 31.219 3.84913C30.7189 3.3875 30.0406 3.12816 29.3333 3.12816ZM6.66667 5.5897V6.82047C6.66667 7.14689 6.80714 7.45994 7.05719 7.69076C7.30724 7.92157 7.64638 8.05124 8 8.05124C8.35362 8.05124 8.69276 7.92157 8.94281 7.69076C9.19286 7.45994 9.33333 7.14689 9.33333 6.82047V5.5897H22.6667V6.82047C22.6667 7.14689 22.8071 7.45994 23.0572 7.69076C23.3072 7.92157 23.6464 8.05124 24 8.05124C24.3536 8.05124 24.6928 7.92157 24.9428 7.69076C25.1929 7.45994 25.3333 7.14689 25.3333 6.82047V5.5897H29.3333V10.5128H2.66667V5.5897H6.66667ZM29.3333 30.2051H2.66667V12.9743H29.3333V30.2051ZM18 18.5128C18 18.8779 17.8827 19.2348 17.6629 19.5384C17.4432 19.842 17.1308 20.0787 16.7654 20.2184C16.3999 20.3581 15.9978 20.3947 15.6098 20.3235C15.2219 20.2522 14.8655 20.0764 14.5858 19.8182C14.3061 19.56 14.1156 19.2311 14.0384 18.8729C13.9613 18.5148 14.0009 18.1436 14.1522 17.8063C14.3036 17.4689 14.56 17.1806 14.8889 16.9778C15.2178 16.7749 15.6044 16.6666 16 16.6666C16.5304 16.6666 17.0391 16.8611 17.4142 17.2074C17.7893 17.5536 18 18.0231 18 18.5128ZM25.3333 18.5128C25.3333 18.8779 25.216 19.2348 24.9963 19.5384C24.7765 19.842 24.4642 20.0787 24.0987 20.2184C23.7332 20.3581 23.3311 20.3947 22.9432 20.3235C22.5552 20.2522 22.1988 20.0764 21.9191 19.8182C21.6394 19.56 21.4489 19.2311 21.3718 18.8729C21.2946 18.5148 21.3342 18.1436 21.4856 17.8063C21.637 17.4689 21.8933 17.1806 22.2222 16.9778C22.5511 16.7749 22.9378 16.6666 23.3333 16.6666C23.8638 16.6666 24.3725 16.8611 24.7475 17.2074C25.1226 17.5536 25.3333 18.0231 25.3333 18.5128ZM10.6667 24.6666C10.6667 25.0318 10.5494 25.3887 10.3296 25.6923C10.1098 25.9959 9.79749 26.2325 9.43203 26.3722C9.06658 26.512 8.66445 26.5485 8.27649 26.4773C7.88852 26.4061 7.53216 26.2302 7.25245 25.9721C6.97275 25.7139 6.78227 25.3849 6.7051 25.0268C6.62793 24.6687 6.66753 24.2975 6.81891 23.9601C6.97028 23.6228 7.22663 23.3345 7.55553 23.1316C7.88443 22.9287 8.2711 22.8205 8.66667 22.8205C9.1971 22.8205 9.70581 23.015 10.0809 23.3612C10.456 23.7074 10.6667 24.177 10.6667 24.6666ZM18 24.6666C18 25.0318 17.8827 25.3887 17.6629 25.6923C17.4432 25.9959 17.1308 26.2325 16.7654 26.3722C16.3999 26.512 15.9978 26.5485 15.6098 26.4773C15.2219 26.4061 14.8655 26.2302 14.5858 25.9721C14.3061 25.7139 14.1156 25.3849 14.0384 25.0268C13.9613 24.6687 14.0009 24.2975 14.1522 23.9601C14.3036 23.6228 14.56 23.3345 14.8889 23.1316C15.2178 22.9287 15.6044 22.8205 16 22.8205C16.5304 22.8205 17.0391 23.015 17.4142 23.3612C17.7893 23.7074 18 24.177 18 24.6666ZM25.3333 24.6666C25.3333 25.0318 25.216 25.3887 24.9963 25.6923C24.7765 25.9959 24.4642 26.2325 24.0987 26.3722C23.7332 26.512 23.3311 26.5485 22.9432 26.4773C22.5552 26.4061 22.1988 26.2302 21.9191 25.9721C21.6394 25.7139 21.4489 25.3849 21.3718 25.0268C21.2946 24.6687 21.3342 24.2975 21.4856 23.9601C21.637 23.6228 21.8933 23.3345 22.2222 23.1316C22.5511 22.9287 22.9378 22.8205 23.3333 22.8205C23.8638 22.8205 24.3725 23.015 24.7475 23.3612C25.1226 23.7074 25.3333 24.177 25.3333 24.6666Z" fill="#F5F5F5"/>
</svg>
