<svg width="18" height="15" viewBox="0 0 18 15" fill="none" xmlns="http://www.w3.org/2000/svg">
<path d="M14.25 3C14.25 2.80109 14.329 2.61032 14.4697 2.46967C14.6103 2.32902 14.8011 2.25 15 2.25H17.25C17.4489 2.25 17.6397 2.32902 17.7803 2.46967C17.921 2.61032 18 2.80109 18 3C18 3.19891 17.921 3.38968 17.7803 3.53033C17.6397 3.67098 17.4489 3.75 17.25 3.75H15C14.8011 3.75 14.6103 3.67098 14.4697 3.53033C14.329 3.38968 14.25 3.19891 14.25 3ZM0.75 3.75H9.75V5.25C9.75 5.44891 9.82902 5.63968 9.96967 5.78033C10.1103 5.92098 10.3011 6 10.5 6H12C12.1989 6 12.3897 5.92098 12.5303 5.78033C12.671 5.63968 12.75 5.44891 12.75 5.25V0.75C12.75 0.551088 12.671 0.360322 12.5303 0.21967C12.3897 0.0790178 12.1989 0 12 0H10.5C10.3011 0 10.1103 0.0790178 9.96967 0.21967C9.82902 0.360322 9.75 0.551088 9.75 0.75V2.25H0.75C0.551088 2.25 0.360322 2.32902 0.21967 2.46967C0.0790178 2.61032 0 2.80109 0 3C0 3.19891 0.0790178 3.38968 0.21967 3.53033C0.360322 3.67098 0.551088 3.75 0.75 3.75ZM17.25 11.25H9C8.80109 11.25 8.61032 11.329 8.46967 11.4697C8.32902 11.6103 8.25 11.8011 8.25 12C8.25 12.1989 8.32902 12.3897 8.46967 12.5303C8.61032 12.671 8.80109 12.75 9 12.75H17.25C17.4489 12.75 17.6397 12.671 17.7803 12.5303C17.921 12.3897 18 12.1989 18 12C18 11.8011 17.921 11.6103 17.7803 11.4697C17.6397 11.329 17.4489 11.25 17.25 11.25ZM6 9H4.5C4.30109 9 4.11032 9.07902 3.96967 9.21967C3.82902 9.36032 3.75 9.55109 3.75 9.75V11.25H0.75C0.551088 11.25 0.360322 11.329 0.21967 11.4697C0.0790178 11.6103 0 11.8011 0 12C0 12.1989 0.0790178 12.3897 0.21967 12.5303C0.360322 12.671 0.551088 12.75 0.75 12.75H3.75V14.25C3.75 14.4489 3.82902 14.6397 3.96967 14.7803C4.11032 14.921 4.30109 15 4.5 15H6C6.19891 15 6.38968 14.921 6.53033 14.7803C6.67098 14.6397 6.75 14.4489 6.75 14.25V9.75C6.75 9.55109 6.67098 9.36032 6.53033 9.21967C6.38968 9.07902 6.19891 9 6 9Z" fill="#F5F5F5"/>
</svg>
