<svg width="32" height="32" viewBox="0 0 32 32" fill="none" xmlns="http://www.w3.org/2000/svg">
<path d="M11.4286 12.8C11.4286 12.3757 11.549 11.9687 11.7633 11.6686C11.9776 11.3686 12.2683 11.2 12.5714 11.2H24C24.3031 11.2 24.5938 11.3686 24.8081 11.6686C25.0225 11.9687 25.1429 12.3757 25.1429 12.8C25.1429 13.2243 25.0225 13.6313 24.8081 13.9314C24.5938 14.2314 24.3031 14.4 24 14.4H12.5714C12.2683 14.4 11.9776 14.2314 11.7633 13.9314C11.549 13.6313 11.4286 13.2243 11.4286 12.8ZM12.5714 20.8H24C24.3031 20.8 24.5938 20.6314 24.8081 20.3314C25.0225 20.0313 25.1429 19.6243 25.1429 19.2C25.1429 18.7757 25.0225 18.3687 24.8081 18.0686C24.5938 17.7686 24.3031 17.6 24 17.6H12.5714C12.2683 17.6 11.9776 17.7686 11.7633 18.0686C11.549 18.3687 11.4286 18.7757 11.4286 19.2C11.4286 19.6243 11.549 20.0313 11.7633 20.3314C11.9776 20.6314 12.2683 20.8 12.5714 20.8ZM32 3.2V27.2C32 28.473 31.6388 29.6939 30.9958 30.5941C30.3528 31.4943 29.4807 32 28.5714 32H3.42857C2.52197 32 1.65228 31.4973 1.00974 30.6019C0.367212 29.7065 0.00415524 28.4912 0 27.222V8C0 7.57565 0.120408 7.16869 0.334735 6.86863C0.549062 6.56857 0.839753 6.4 1.14286 6.4C1.44596 6.4 1.73665 6.56857 1.95098 6.86863C2.16531 7.16869 2.28571 7.57565 2.28571 8V27.2C2.28571 27.6243 2.40612 28.0313 2.62045 28.3314C2.83478 28.6314 3.12547 28.8 3.42857 28.8C3.73168 28.8 4.02237 28.6314 4.23669 28.3314C4.45102 28.0313 4.57143 27.6243 4.57143 27.2V3.2C4.57143 2.35131 4.81224 1.53737 5.2409 0.937258C5.66955 0.337142 6.25093 0 6.85714 0H29.7143C30.3205 0 30.9019 0.337142 31.3305 0.937258C31.7592 1.53737 32 2.35131 32 3.2ZM29.7143 3.2H6.85714V27.2C6.85771 27.7451 6.79151 28.2862 6.66143 28.8H28.5714C28.8745 28.8 29.1652 28.6314 29.3796 28.3314C29.5939 28.0313 29.7143 27.6243 29.7143 27.2V3.2Z" fill="#F5F5F5"/>
</svg>
