<svg width="32" height="29" viewBox="0 0 32 29" fill="none" xmlns="http://www.w3.org/2000/svg">
<path d="M29.5385 5.16667H23.3846V4C23.3846 3.07174 22.9956 2.1815 22.3032 1.52513C21.6107 0.868749 20.6716 0.5 19.6923 0.5H12.3077C11.3284 0.5 10.3893 0.868749 9.69684 1.52513C9.00439 2.1815 8.61539 3.07174 8.61539 4V5.16667H2.46154C1.8087 5.16667 1.1826 5.4125 0.720968 5.85008C0.25934 6.28767 0 6.88116 0 7.5V26.1667C0 26.7855 0.25934 27.379 0.720968 27.8166C1.1826 28.2542 1.8087 28.5 2.46154 28.5H29.5385C30.1913 28.5 30.8174 28.2542 31.279 27.8166C31.7407 27.379 32 26.7855 32 26.1667V7.5C32 6.88116 31.7407 6.28767 31.279 5.85008C30.8174 5.4125 30.1913 5.16667 29.5385 5.16667ZM2.46154 13.3333H29.5385V20.3333H2.46154V13.3333ZM11.0769 4C11.0769 3.69058 11.2066 3.39383 11.4374 3.17504C11.6682 2.95625 11.9813 2.83333 12.3077 2.83333H19.6923C20.0187 2.83333 20.3318 2.95625 20.5626 3.17504C20.7934 3.39383 20.9231 3.69058 20.9231 4V5.16667H11.0769V4ZM29.5385 7.5V11H2.46154V7.5H29.5385ZM29.5385 26.1667H2.46154V22.6667H29.5385V26.1667Z" fill="#F5F5F5"/>
</svg>
