<svg width="32" height="29" viewBox="0 0 32 29" fill="none" xmlns="http://www.w3.org/2000/svg">
<path d="M31.7331 9.50868L24.2659 0.54882C24.1661 0.429098 24.0431 0.333087 23.9051 0.267185C23.7672 0.201283 23.6174 0.167002 23.4659 0.166626H8.53152C8.37996 0.167002 8.23021 0.201283 8.09226 0.267185C7.9543 0.333087 7.83131 0.429098 7.73147 0.54882L0.264283 9.50868C0.0900802 9.7175 -0.00405439 9.9868 0.00013399 10.2643C0.00432237 10.5419 0.106535 10.8079 0.286951 11.0109L15.2213 27.8106C15.3211 27.9229 15.4419 28.0125 15.5761 28.0738C15.7103 28.135 15.855 28.1666 16.0014 28.1666C16.1477 28.1666 16.2925 28.135 16.4267 28.0738C16.5609 28.0125 16.6816 27.9229 16.7814 27.8106L31.7158 11.0109C31.8955 10.8072 31.9967 10.5408 31.9999 10.2633C32.0031 9.98572 31.908 9.71681 31.7331 9.50868ZM28.5822 9.12649H22.9325L18.1322 2.40659H22.9819L28.5822 9.12649ZM8.87554 11.3665L12.8932 21.9125L3.51917 11.3665H8.87554ZM20.823 11.3665L15.9987 24.0307L11.1744 11.3665H20.823ZM11.7317 9.12649L15.9987 3.15278L20.2657 9.12649H11.7317ZM23.1219 11.3665H28.4782L19.1042 21.9125L23.1219 11.3665ZM9.01555 2.40659H13.8652L9.06489 9.12649H3.41517L9.01555 2.40659Z" fill="#F5F5F5"/>
</svg>
