<svg width="32" height="32" viewBox="0 0 32 32" fill="none" xmlns="http://www.w3.org/2000/svg">
<path d="M17.8462 24C17.8462 24.3651 17.7379 24.7221 17.535 25.0257C17.3322 25.3293 17.0438 25.5659 16.7065 25.7056C16.3692 25.8453 15.998 25.8819 15.6398 25.8107C15.2817 25.7394 14.9528 25.5636 14.6946 25.3054C14.4364 25.0472 14.2606 24.7183 14.1893 24.3602C14.1181 24.002 14.1546 23.6308 14.2944 23.2935C14.4341 22.9562 14.6707 22.6678 14.9743 22.465C15.2779 22.2621 15.6349 22.1538 16 22.1538C16.4896 22.1538 16.9592 22.3483 17.3054 22.6946C17.6517 23.0408 17.8462 23.5104 17.8462 24ZM16 7.38461C12.6062 7.38461 9.84616 9.86923 9.84616 12.9231V13.5385C9.84616 13.8649 9.97583 14.1779 10.2066 14.4087C10.4375 14.6396 10.7505 14.7692 11.0769 14.7692C11.4033 14.7692 11.7164 14.6396 11.9472 14.4087C12.178 14.1779 12.3077 13.8649 12.3077 13.5385V12.9231C12.3077 11.2308 13.9646 9.84615 16 9.84615C18.0354 9.84615 19.6923 11.2308 19.6923 12.9231C19.6923 14.6154 18.0354 16 16 16C15.6736 16 15.3605 16.1297 15.1297 16.3605C14.8989 16.5913 14.7692 16.9043 14.7692 17.2308V18.4615C14.7692 18.788 14.8989 19.101 15.1297 19.3318C15.3605 19.5626 15.6736 19.6923 16 19.6923C16.3264 19.6923 16.6395 19.5626 16.8703 19.3318C17.1011 19.101 17.2308 18.788 17.2308 18.4615V18.3508C20.0369 17.8354 22.1538 15.5969 22.1538 12.9231C22.1538 9.86923 19.3938 7.38461 16 7.38461ZM32 16C32 19.1645 31.0616 22.2579 29.3035 24.8891C27.5454 27.5203 25.0466 29.5711 22.1229 30.7821C19.1993 31.9931 15.9823 32.3099 12.8786 31.6926C9.77486 31.0752 6.92394 29.5513 4.6863 27.3137C2.44866 25.0761 0.924806 22.2251 0.307443 19.1214C-0.309921 16.0177 0.00693255 12.8007 1.21793 9.87706C2.42894 6.95344 4.4797 4.45459 7.11088 2.69649C9.74207 0.938383 12.8355 0 16 0C20.2421 0.00447972 24.3092 1.69163 27.3088 4.69124C30.3084 7.69085 31.9955 11.7579 32 16ZM29.5385 16C29.5385 13.3223 28.7444 10.7048 27.2568 8.47843C25.7692 6.25204 23.6548 4.51679 21.1809 3.49209C18.7071 2.4674 15.985 2.19929 13.3588 2.72168C10.7326 3.24406 8.32026 4.53347 6.42687 6.42686C4.53348 8.32025 3.24407 10.7326 2.72168 13.3588C2.1993 15.985 2.4674 18.7071 3.4921 21.1809C4.51679 23.6548 6.25205 25.7692 8.47844 27.2568C10.7048 28.7444 13.3223 29.5385 16 29.5385C19.5894 29.5344 23.0306 28.1067 25.5686 25.5686C28.1067 23.0306 29.5344 19.5894 29.5385 16Z" fill="#F5F5F5"/>
</svg>
