<svg width="32" height="32" viewBox="0 0 32 32" fill="none" xmlns="http://www.w3.org/2000/svg">
<path d="M31.3055 15.4076L16.5928 0.694834C16.3735 0.473765 16.1124 0.298494 15.8248 0.179213C15.5371 0.0599308 15.2286 -0.000982883 14.9172 1.19926e-05H1.18521C0.870876 1.19926e-05 0.569416 0.124881 0.347149 0.347149C0.124881 0.569416 1.19926e-05 0.870876 1.19926e-05 1.18521V14.9172C-0.000982883 15.2286 0.0599308 15.5371 0.179213 15.8248C0.298494 16.1124 0.473765 16.3735 0.694834 16.5928L15.4076 31.3055C15.6277 31.5257 15.889 31.7004 16.1767 31.8195C16.4643 31.9387 16.7726 32 17.0839 32C17.3952 32 17.7035 31.9387 17.9911 31.8195C18.2788 31.7004 18.5401 31.5257 18.7602 31.3055L31.3055 18.7602C31.5257 18.5401 31.7004 18.2788 31.8195 17.9911C31.9387 17.7035 32 17.3952 32 17.0839C32 16.7726 31.9387 16.4643 31.8195 16.1767C31.7004 15.889 31.5257 15.6277 31.3055 15.4076ZM17.0832 29.63L2.37041 14.9172V2.37041H14.9172L29.63 17.0832L17.0832 29.63ZM9.4816 7.7038C9.4816 8.05541 9.37733 8.39913 9.18198 8.69149C8.98664 8.98385 8.70898 9.21171 8.38413 9.34627C8.05928 9.48083 7.70183 9.51603 7.35697 9.44744C7.01211 9.37884 6.69534 9.20952 6.44671 8.96089C6.19808 8.71226 6.02876 8.39549 5.96016 8.05063C5.89157 7.70577 5.92677 7.34832 6.06133 7.02347C6.19589 6.69862 6.42375 6.42096 6.71611 6.22561C7.00847 6.03027 7.35218 5.926 7.7038 5.926C8.1753 5.926 8.62749 6.1133 8.96089 6.44671C9.29429 6.78011 9.4816 7.2323 9.4816 7.7038Z" fill="#F5F5F5"/>
</svg>
