<svg width="32" height="32" viewBox="0 0 32 32" fill="none" xmlns="http://www.w3.org/2000/svg">
<path d="M15.1915 13.3819C15.2976 13.4882 15.4236 13.5725 15.5624 13.63C15.7011 13.6875 15.8498 13.7172 16 13.7172C16.1502 13.7172 16.2989 13.6875 16.4376 13.63C16.5764 13.5725 16.7024 13.4882 16.8085 13.3819L22.5225 7.66721C22.6287 7.56106 22.713 7.43501 22.7705 7.29626C22.8281 7.1575 22.8577 7.00878 22.8577 6.85858C22.8577 6.70838 22.8281 6.55965 22.7705 6.4209C22.713 6.28214 22.6287 6.15609 22.5225 6.04994L16.8085 0.335211C16.7024 0.228944 16.5764 0.144641 16.4376 0.0871232C16.2989 0.0296052 16.1502 0 16 0C15.8498 0 15.7011 0.0296052 15.5624 0.0871232C15.4236 0.144641 15.2976 0.228944 15.1915 0.335211L9.47751 6.04994C9.37126 6.15609 9.28697 6.28214 9.22946 6.4209C9.17195 6.55965 9.14234 6.70838 9.14234 6.85858C9.14234 7.00878 9.17195 7.1575 9.22946 7.29626C9.28697 7.43501 9.37126 7.56106 9.47751 7.66721L15.1915 13.3819ZM16 2.75969L20.0983 6.85858L16 10.9575L11.9017 6.85858L16 2.75969ZM16.8085 18.6181C16.7024 18.5118 16.5764 18.4275 16.4376 18.37C16.2989 18.3125 16.1502 18.2829 16 18.2829C15.8498 18.2829 15.7011 18.3125 15.5624 18.37C15.4236 18.4275 15.2976 18.5118 15.1915 18.6181L9.47751 24.3328C9.37126 24.4389 9.28697 24.565 9.22946 24.7037C9.17195 24.8425 9.14234 24.9912 9.14234 25.1414C9.14234 25.2916 9.17195 25.4404 9.22946 25.5791C9.28697 25.7179 9.37126 25.8439 9.47751 25.9501L15.1915 31.6648C15.2976 31.7711 15.4236 31.8554 15.5624 31.9129C15.7011 31.9704 15.8498 32 16 32C16.1502 32 16.2989 31.9704 16.4376 31.9129C16.5764 31.8554 16.7024 31.7711 16.8085 31.6648L22.5225 25.9501C22.6287 25.8439 22.713 25.7179 22.7705 25.5791C22.8281 25.4404 22.8577 25.2916 22.8577 25.1414C22.8577 24.9912 22.8281 24.8425 22.7705 24.7037C22.713 24.565 22.6287 24.4389 22.5225 24.3328L16.8085 18.6181ZM16 29.2446L11.9017 25.1457L16 21.0468L20.0983 25.1457L16 29.2446ZM31.6648 15.1935L25.9509 9.47878C25.8447 9.37251 25.7187 9.28821 25.58 9.23069C25.4412 9.17318 25.2925 9.14357 25.1423 9.14357C24.9922 9.14357 24.8435 9.17318 24.7047 9.23069C24.566 9.28821 24.44 9.37251 24.3338 9.47878L18.6199 15.1935C18.5136 15.2997 18.4293 15.4257 18.3718 15.5645C18.3143 15.7032 18.2847 15.8519 18.2847 16.0021C18.2847 16.1523 18.3143 16.3011 18.3718 16.4398C18.4293 16.5786 18.5136 16.7046 18.6199 16.8108L24.3338 22.5255C24.44 22.6318 24.566 22.7161 24.7047 22.7736C24.8435 22.8311 24.9922 22.8607 25.1423 22.8607C25.2925 22.8607 25.4412 22.8311 25.58 22.7736C25.7187 22.7161 25.8447 22.6318 25.9509 22.5255L31.6648 16.8108C31.7711 16.7046 31.8554 16.5786 31.9129 16.4398C31.9704 16.3011 32 16.1523 32 16.0021C32 15.8519 31.9704 15.7032 31.9129 15.5645C31.8554 15.4257 31.7711 15.2997 31.6648 15.1935ZM25.1423 20.101L21.044 16.0021L25.1423 11.9033L29.2407 16.0021L25.1423 20.101ZM13.3801 15.1935L7.66618 9.47878C7.56005 9.37251 7.43401 9.28821 7.29528 9.23069C7.15655 9.17318 7.00784 9.14357 6.85766 9.14357C6.70748 9.14357 6.55877 9.17318 6.42004 9.23069C6.2813 9.28821 6.15527 9.37251 6.04913 9.47878L0.335166 15.1935C0.228913 15.2997 0.144622 15.4257 0.0871115 15.5645C0.0296012 15.7032 0 15.8519 0 16.0021C0 16.1523 0.0296012 16.3011 0.0871115 16.4398C0.144622 16.5786 0.228913 16.7046 0.335166 16.8108L6.04913 22.5255C6.15527 22.6318 6.2813 22.7161 6.42004 22.7736C6.55877 22.8311 6.70748 22.8607 6.85766 22.8607C7.00784 22.8607 7.15655 22.8311 7.29528 22.7736C7.43401 22.7161 7.56005 22.6318 7.66618 22.5255L13.3801 16.8108C13.4864 16.7046 13.5707 16.5786 13.6282 16.4398C13.6857 16.3011 13.7153 16.1523 13.7153 16.0021C13.7153 15.8519 13.6857 15.7032 13.6282 15.5645C13.5707 15.4257 13.4864 15.2997 13.3801 15.1935ZM6.85766 20.101L2.75932 16.0021L6.85766 11.9033L10.956 16.0021L6.85766 20.101Z" fill="#F5F5F5"/>
</svg>
