<svg width="32" height="29" viewBox="0 0 32 29" fill="none" xmlns="http://www.w3.org/2000/svg">
<path d="M28.3077 0.5H3.69231C2.71305 0.5 1.77389 0.942499 1.08145 1.73015C0.38901 2.5178 0 3.58609 0 4.7V24.3C0 25.4139 0.38901 26.4822 1.08145 27.2698C1.77389 28.0575 2.71305 28.5 3.69231 28.5H28.3077C29.287 28.5 30.2261 28.0575 30.9186 27.2698C31.611 26.4822 32 25.4139 32 24.3V4.7C32 3.58609 31.611 2.5178 30.9186 1.73015C30.2261 0.942499 29.287 0.5 28.3077 0.5ZM2.46154 8.9H29.5385V11.7H20.9231C20.5967 11.7 20.2836 11.8475 20.0528 12.1101C19.822 12.3726 19.6923 12.7287 19.6923 13.1C19.6923 14.2139 19.3033 15.2822 18.6109 16.0698C17.9184 16.8575 16.9793 17.3 16 17.3C15.0207 17.3 14.0816 16.8575 13.3891 16.0698C12.6967 15.2822 12.3077 14.2139 12.3077 13.1C12.3077 12.7287 12.178 12.3726 11.9472 12.1101C11.7164 11.8475 11.4033 11.7 11.0769 11.7H2.46154V8.9ZM3.69231 3.3H28.3077C28.6341 3.3 28.9472 3.4475 29.178 3.71005C29.4088 3.9726 29.5385 4.3287 29.5385 4.7V6.1H2.46154V4.7C2.46154 4.3287 2.59121 3.9726 2.82202 3.71005C3.05284 3.4475 3.36589 3.3 3.69231 3.3ZM28.3077 25.7H3.69231C3.36589 25.7 3.05284 25.5525 2.82202 25.2899C2.59121 25.0274 2.46154 24.6713 2.46154 24.3V14.5H9.96923C10.2517 16.0824 11.0064 17.5051 12.1055 18.5269C13.2046 19.5488 14.5805 20.107 16 20.107C17.4195 20.107 18.7954 19.5488 19.8945 18.5269C20.9936 17.5051 21.7483 16.0824 22.0308 14.5H29.5385V24.3C29.5385 24.6713 29.4088 25.0274 29.178 25.2899C28.9472 25.5525 28.6341 25.7 28.3077 25.7Z" fill="#F5F5F5"/>
</svg>
