<svg width="32" height="32" viewBox="0 0 32 32" fill="none" xmlns="http://www.w3.org/2000/svg">
<path d="M8.6202 25.2308C8.6202 25.5959 8.51195 25.9529 8.30914 26.2565C8.10632 26.5601 7.81805 26.7967 7.48078 26.9364C7.14351 27.0761 6.77238 27.1127 6.41434 27.0415C6.05629 26.9702 5.72741 26.7944 5.46927 26.5362C5.21114 26.278 5.03534 25.9491 4.96412 25.591C4.8929 25.2328 4.92946 24.8616 5.06916 24.5243C5.20886 24.187 5.44544 23.8986 5.74898 23.6958C6.05251 23.4929 6.40937 23.3846 6.77443 23.3846C7.26396 23.3846 7.73344 23.5792 8.07959 23.9254C8.42574 24.2716 8.6202 24.7412 8.6202 25.2308ZM32 21.5677V29.5385C32 30.1913 31.7407 30.8174 31.2792 31.279C30.8176 31.7407 30.1917 32 29.539 32H6.77443C6.36509 32.0003 5.95648 31.9653 5.55314 31.8954C3.79355 31.5743 2.23259 30.5696 1.21142 29.1008C0.190256 27.632 -0.208071 25.8186 0.103499 24.057L3.94886 2.03704C4.00352 1.71886 4.12045 1.41461 4.29295 1.14173C4.46545 0.868862 4.69012 0.632744 4.95407 0.446926C5.21802 0.261107 5.51606 0.129247 5.83108 0.0589095C6.1461 -0.0114279 6.47191 -0.018858 6.78981 0.0370458L15.2096 1.53858C15.8503 1.65406 16.4191 2.01871 16.7915 2.55271C17.164 3.08671 17.3097 3.74655 17.1969 4.3878L15.3388 15.0031L25.769 11.2308C26.3804 11.01 27.0543 11.04 27.6437 11.3144C28.233 11.5888 28.6899 12.0853 28.9145 12.6955L31.8462 20.7216C31.9404 20.9941 31.9922 21.2795 32 21.5677ZM10.9274 25.98L14.7728 3.96011L6.38374 2.46165L2.53838 24.477C2.33762 25.5967 2.58788 26.7505 3.23454 27.6864C3.8812 28.6222 4.87175 29.2643 5.98998 29.4723C6.53739 29.5705 7.09884 29.5589 7.64174 29.4382C8.18463 29.3175 8.69813 29.0901 9.1524 28.7692C9.61829 28.4452 10.0151 28.0317 10.3198 27.5529C10.6246 27.074 10.8311 26.5394 10.9274 25.98ZM13.047 27.5385L29.539 21.5554L26.6042 13.5385L14.8497 17.8001L13.3454 26.4031C13.2785 26.7894 13.1787 27.1692 13.047 27.5385ZM29.539 24.1723L14.7328 29.5385H29.539V24.1723Z" fill="#F5F5F5"/>
</svg>
